<?xml version="1.0" encoding="UTF-8"?>
<svg viewBox="0 0 240 190" xmlns="http://www.w3.org/2000/svg" xmlns:xlink="http://www.w3.org/1999/xlink">
 <defs>
  <symbol id="a" width="744.0945" height="466.1125">
   <g transform="matrix(1.0315 0 0 1.0315 -20.523 -155.7)">
    <rect x="98.751" y="154.06" width="51.718" height="255.71" fill-rule="evenodd" stroke="#000" stroke-width="1.207"/>
    <rect x="201.14" y="153.94" width="51.718" height="255.71" fill-rule="evenodd" stroke="#000" stroke-width="1.207"/>
    <rect x="406.25" y="153.43" width="51.718" height="255.71" fill-rule="evenodd" stroke="#000" stroke-width="1.207"/>
    <rect x="508.04" y="154.45" width="51.718" height="255.71" fill-rule="evenodd" stroke="#000" stroke-width="1.207"/>
    <rect x="611.87" y="153.94" width="51.718" height="255.71" fill-rule="evenodd" stroke="#000" stroke-width="1.207"/>
    <rect x="21.594" y="152.63" width="718.34" height="449.14" fill="none" stroke="#000" stroke-width="2.375"/>
    <path d="m123.8 399.56v202.18" fill="none" stroke="#000" stroke-width="2.375"/>
    <path d="m227.45 398.58v202.18" fill="none" stroke="#000" stroke-width="2.375"/>
    <path d="m432.25 399.92v202.18" fill="none" stroke="#000" stroke-width="2.375"/>
    <path d="m534.08 399.92v202.18" fill="none" stroke="#000" stroke-width="2.375"/>
    <path d="m638.45 399.2v202.18" fill="none" stroke="#000" stroke-width="2.375"/>
    <path d="m329.73 153.1v448.22" fill="none" stroke="#000" stroke-width="2.375"/>
   </g>
  </symbol>
 </defs>
 <g stroke="#000">
  <g transform="matrix(1.2885 0 0 .74846 -106.03 -245.07)" fill="none">
   <path d="m86.561 342.82v89.064" stroke-width="5.286"/>
   <g stroke-width="1.25">
    <path d="m86.561 343.53l177.07 0.7198"/>
    <path d="m88.001 365.49l177.07 0.7198"/>
    <path d="m88.72 387.26l177.07 0.7198"/>
    <path d="m86.921 409.48l177.07 0.7198"/>
    <path d="m87.641 431.26l177.07 0.7198"/>
   </g>
  </g>
  <path d="m71.584 76.24a7.4629 6.6664 0 1 1 -14.926 0 7.4629 6.6664 0 1 1 14.926 0z" stroke-opacity="0"/>
  <path d="m70.788 76.431c1.1428-11.428 0.38094-23.618-2.2856-37.713 2.5396 1.6507 8.5076 4.4442 12.19 4.1903" fill="none" stroke-linecap="round" stroke-linejoin="round" stroke-width="2.5"/>
 </g>
 <g stroke="#000">
  <g stroke-opacity="0">
   <path d="m97.559 53.474a7.4629 6.6664 0 1 1 -14.926 0 7.4629 6.6664 0 1 1 14.926 0z"/>
   <path d="m116.57 61.686a7.4629 6.6664 0 1 1 -14.926 0 7.4629 6.6664 0 1 1 14.926 0z"/>
  </g>
  <g fill="none" stroke-linecap="round" stroke-linejoin="round" stroke-width="2.5">
   <path d="m96.762 54.046c1.1428-11.428 0.38094-23.618-2.2856-37.713 6.222 4.2538 12.338 8.4336 20.904 10.428 2.2697 6.587 3.9205 28.554 0.42854 35.284"/>
   <path d="m95.527 21.687c6.222 4.2538 12.338 8.4336 20.904 10.428"/>
  </g>
 </g>
 <g stroke="#000">
  <path d="m140.24 29.295" stroke-opacity="0"/>
  <path d="m139.45 29.104c1.1428 11.428-2.2856 27.427-1.1428 36.951 4.4443-0.12697 7.3648 1.6507 9.1425 3.8094" fill="none" stroke-linecap="round" stroke-linejoin="round" stroke-width="2.5"/>
 </g>
 <g transform="matrix(.67885 0 0 .68823 -164.05 .91984)">
  <g stroke="#000">
   <path d="m276.91 136.65c0.021912 8.47 18.816 7.394 18.753-6.573 0.02478-13.607-17.955-89.746-18.155-104.31-0.2114-11.557 6.1223-24.51 11.548-24.369 4.2986 0.14101 8.3376 9.8729 8.3154 21.986 0.32638 39.173-33.981 36.641-33.981 63.409 0 17.302 14.363 21.872 21.545 21.872 24.32-0.16301 20.239-29.38 4.7333-29.38-9.1403-0.32661-17.138 12.078-5.0598 22.361-20.402-8.9768-9.4667-30.685 6.692-30.848 21.545 0.1631 25.299 39.662-6.3655 39.825-18.934 0.16399-26.931-16.485-26.768-29.542 0-25.136 37.051-39.662 36.561-60.881 0-13.384-13.874-7.3449-14.2 14.2 0.32651 13.384 17.628 84.058 17.465 94.994 0 22.524-28.89 15.179-28.89 3.754 0.16318-16.322 16.975-4.734 11.752-4.244-4.0806 7.182-3.9457 7.742-3.9457 7.742z"/>
   <path d="m284.74 129.55c0 3.789-3.1601 6.865-7.0534 6.865s-7.0535-3.076-7.0535-6.865c0-3.79 3.1602-6.866 7.0535-6.866s7.0534 3.076 7.0534 6.866z"/>
  </g>
  <path d="m292.4 107.14h2.3125v2.25h-2.3125v-2.25z"/>
  <path d="m285.65 71.828h2.9375v7.3125h-2.9375v-7.3125z"/>
  <path d="m280.44 44.668l1.393-0.2405 1.9603 12.937-1.393 0.2405-1.9603-12.937z"/>
 </g>
 <use transform="matrix(.15537 0 0 .15537 .065121 -25.815)" x="25.745203" y="868" xlink:href="#a"/>
 <g stroke="#000">
  <path d="m170.41 53.928a7.4629 6.6664 0 1 1 -14.926 0 7.4629 6.6664 0 1 1 14.926 0z" stroke-opacity="0"/>
  <path d="m169.61 54.118c1.1428-11.428 0.38095-23.618-2.2856-37.713 2.5396 1.6507 8.5076 4.4442 12.19 4.1903" fill="none" stroke-linecap="round" stroke-linejoin="round" stroke-width="2.5"/>
  <path d="m154.16 28.178a7.4629 6.6664 0 1 1 -14.926 0 7.4629 6.6664 0 1 1 14.926 0z" stroke-opacity="0"/>
 </g>
 <g transform="rotate(180 209.25 47.75)">
  <g stroke="#000">
   <g stroke-opacity="0">
    <path d="m206.58 58.879a7.4629 6.6664 0 1 1 -14.926 0 7.4629 6.6664 0 1 1 14.926 0z"/>
    <path d="m225.59 67.09a7.4629 6.6664 0 1 1 -14.926 0 7.4629 6.6664 0 1 1 14.926 0z"/>
   </g>
   <g fill="none" stroke-linecap="round" stroke-linejoin="round" stroke-width="2.5">
    <path d="m205.79 59.45c1.1428-11.428 0.38095-23.618-2.2856-37.713 6.222 4.2538 12.338 8.4336 20.904 10.428 2.2697 6.587 3.9205 28.554 0.42854 35.284"/>
    <path d="m204.55 27.092c6.222 4.2538 12.338 8.4336 20.904 10.428"/>
   </g>
  </g>
 </g>
 <use transform="matrix(.15537 0 0 .15537 .065121 -25.815)" x="764.980528" y="868" xlink:href="#a"/>
</svg>
